PathFileType	4	(X/Y/Z)	C:/Users/dbak576/Desktop/Duncan Bakke Modelling Files/H30s1/Static_H30s1.trc	
DataRate	CameraRate	NumFrames	NumMarkers	Units	OrigDataRate	OrigDataStartFrame	OrigNumFrames	
200.00	200.00	4	63	mm	200.00	1324	360	
Frame#	Time	LFHD			RFHD			LBHD			RBHD			C7			T10			CLAV			RBack			LASI			RASI			LPSI			RPSI			RACR1			RUA1			RElbow			RElbowM			RFA1			RWRR			RWRU			RCAR			LACR1			LUA1			LElbow			LElbowM			LFA1			LWRR			LWRU			LCAR			RTH1			RTH3			RTH2			RTH4			RLFC			RMFC			RTB1			RTB3			RTB2			RTB4			RLMAL			RMMAL			RMT1			RMT5			RToe			LTH1			LTH3			LTH2			LTH4			LLFC			LMFC			LTB1			LTB3			LTB2			LTB4			LLMAL			LMMAL			LCAL			LMT1			LMT5			LToe			RCAL			STRN			*61			*62			
		X1	Y1	Z1	X2	Y2	Z2	X3	Y3	Z3	X4	Y4	Z4	X5	Y5	Z5	X6	Y6	Z6	X7	Y7	Z7	X8	Y8	Z8	X9	Y9	Z9	X10	Y10	Z10	X11	Y11	Z11	X12	Y12	Z12	X13	Y13	Z13	X14	Y14	Z14	X15	Y15	Z15	X16	Y16	Z16	X17	Y17	Z17	X18	Y18	Z18	X19	Y19	Z19	X20	Y20	Z20	X21	Y21	Z21	X22	Y22	Z22	X23	Y23	Z23	X24	Y24	Z24	X25	Y25	Z25	X26	Y26	Z26	X27	Y27	Z27	X28	Y28	Z28	X29	Y29	Z29	X30	Y30	Z30	X31	Y31	Z31	X32	Y32	Z32	X33	Y33	Z33	X34	Y34	Z34	X35	Y35	Z35	X36	Y36	Z36	X37	Y37	Z37	X38	Y38	Z38	X39	Y39	Z39	X40	Y40	Z40	X41	Y41	Z41	X42	Y42	Z42	X43	Y43	Z43	X44	Y44	Z44	X45	Y45	Z45	X46	Y46	Z46	X47	Y47	Z47	X48	Y48	Z48	X49	Y49	Z49	X50	Y50	Z50	X51	Y51	Z51	X52	Y52	Z52	X53	Y53	Z53	X54	Y54	Z54	X55	Y55	Z55	X56	Y56	Z56	X57	Y57	Z57	X58	Y58	Z58	X59	Y59	Z59	X60	Y60	Z60	X61	Y61	Z61	X62	Y62	Z62	X63	Y63	Z63	

46	0.225	-43.11569	-341.26361	1587.91858	56.48257	-334.10358	1592.26123	-56.01836	-495.08130	1554.34338	87.98931	-483.15897	1565.22778	15.22783	-518.52014	1425.76819	18.72150	-548.15503	1197.41052	17.28723	-393.45432	1343.53137	86.20580	-571.96191	1281.46313	-97.19746	-344.70074	920.35107	155.05917	-352.29388	939.23792	-25.78095	-525.83960	965.19318	74.05315	-525.81671	964.82507	161.72255	-492.61481	1384.85632	298.64725	-477.53244	1328.27539	452.46805	-429.79398	1303.07715	421.89899	-373.18356	1273.22058	578.94366	-405.08255	1341.01196	674.48303	-348.50305	1400.09204	690.98981	-338.16183	1333.95911	754.26593	-328.65067	1385.27551	-118.22080	-484.96783	1395.00232	-260.81155	-491.13721	1332.80469	-406.02322	-453.85938	1295.12842	-392.13995	-400.95285	1259.39453	-537.33966	-408.05371	1335.70789	-623.24377	-347.86038	1397.21033	-634.58490	-321.15405	1336.45288	-700.47113	-327.61688	1387.16614	241.33812	-411.63354	775.96246	223.64728	-422.81473	604.79285	210.82292	-362.84717	690.29126	232.12100	-417.96075	687.89484	212.81975	-432.50159	457.17789	89.64836	-468.61633	435.16583	196.75723	-415.62360	348.45059	201.96683	-431.22430	176.18324	241.18454	-468.85193	267.94824	200.65976	-422.81494	261.82040	225.61702	-487.23196	68.86338	145.20081	-470.81268	80.27022	156.56918	-347.72992	34.44600	245.03368	-380.07181	24.58602	184.62009	-289.83591	26.04643	-175.54810	-409.75150	761.25439	-162.50809	-431.56052	591.07806	-149.79254	-365.76929	670.01416	-171.58385	-421.18033	675.41956	-157.14893	-452.67856	452.04724	-27.01449	-473.06805	428.53491	-107.49686	-414.91333	346.87192	-118.37559	-430.02972	177.17706	-171.98610	-443.64551	267.00214	-113.45290	-426.05688	261.28403	-171.17654	-485.22000	69.54808	-91.15144	-468.33450	79.25587	-130.73387	-535.96063	33.37920	-111.02818	-342.63348	29.96086	-193.18391	-376.26419	24.85822	-139.92000	-283.70828	25.11264	186.60539	-535.59442	38.77412	18.56017	-343.08572	1221.95898						 
47	0.230	-43.08083	-341.30057	1587.92700	56.53136	-334.08218	1592.28833	-55.99399	-495.10144	1554.37903	88.64801	-483.38992	1565.33813	15.28304	-518.49738	1425.74097	18.73155	-548.14264	1197.37793	17.29513	-393.42542	1343.53174	86.22041	-571.91956	1281.47522	-97.20251	-344.70154	920.36804	155.06479	-352.21539	939.22437	-25.80613	-525.80707	965.17163	74.08884	-525.79230	964.81122	161.78009	-492.59418	1384.86499	298.63992	-477.52975	1328.23950	452.47092	-429.92670	1303.03906	421.92407	-373.26358	1273.15503	578.93945	-404.95804	1340.97046	674.46729	-348.43237	1400.08228	691.03180	-338.14542	1333.92883	754.29077	-328.60043	1385.20520	-118.00959	-484.88324	1395.05859	-260.76227	-491.11807	1332.83350	-406.00217	-453.84171	1295.12610	-392.11374	-400.96005	1259.44421	-537.33252	-407.98404	1335.71472	-623.25970	-347.82507	1397.25940	-634.52655	-321.11307	1336.49243	-700.35663	-327.49768	1387.08484	241.32962	-411.59232	775.97827	223.63988	-422.80258	604.82037	210.55591	-362.41727	690.37299	232.24384	-418.22513	688.04553	212.83803	-432.59534	457.26321	89.63110	-468.60242	435.16714	196.73679	-415.58350	348.44870	201.96094	-431.20645	176.16962	241.15063	-468.86768	267.93951	200.64409	-422.81061	261.85785	225.67369	-487.15717	68.64976	145.21092	-470.81064	80.27988	156.58989	-347.72159	34.44722	245.05414	-380.06421	24.58353	184.62198	-289.83340	26.05079	-175.57594	-409.75864	761.26410	-162.51973	-431.56030	591.08612	-149.79163	-365.75415	670.01758	-171.56737	-421.21472	675.40967	-157.12877	-452.68088	452.02737	-26.98228	-473.02277	428.52560	-107.50625	-414.95474	346.86713	-118.38052	-430.03226	177.19595	-171.98557	-443.64767	267.00607	-113.45892	-426.05222	261.26227	-171.21495	-485.14075	69.46134	-91.14983	-468.39178	79.25566	-130.76241	-535.90796	33.28445	-111.01065	-342.64392	29.95636	-193.16716	-376.27631	24.87127	-139.93817	-283.69772	25.11801	186.55054	-535.47485	38.74263	18.58669	-343.05249	1221.96460						 
48	0.235	-43.06244	-341.25595	1587.92188	56.51763	-334.05798	1592.26440	-55.93265	-495.09967	1554.36755	88.79015	-483.40405	1565.35437	15.29826	-518.49646	1425.72803	18.76840	-548.16394	1197.40503	17.32106	-393.41656	1343.52979	86.24992	-571.89050	1281.46448	-97.22740	-344.69455	920.37518	155.06476	-352.17639	939.23956	-25.76557	-525.79810	965.18756	74.06905	-525.76257	964.83380	161.78722	-492.59229	1384.84314	298.68042	-477.51239	1328.21863	452.46121	-429.96045	1303.02954	421.95294	-373.20853	1273.15576	578.91003	-404.90964	1340.91565	674.55438	-348.37341	1400.06506	690.95032	-338.11060	1333.88086	754.27954	-328.55280	1385.18408	-118.15566	-484.94662	1395.03662	-260.75241	-491.14746	1332.81897	-405.97592	-453.80661	1295.16882	-392.09625	-400.84158	1259.46289	-537.33972	-407.97009	1335.78137	-623.23920	-347.82370	1397.24219	-634.50098	-321.04092	1336.53528	-700.41791	-327.51236	1387.24634	241.34053	-411.56989	775.97089	223.64725	-422.80890	604.80634	210.52203	-362.33981	690.40009	232.13873	-417.99280	687.94000	212.82159	-432.50226	457.19089	89.65650	-468.58548	435.12430	196.71146	-415.58789	348.45279	201.95009	-431.20917	176.19597	241.13266	-468.80829	267.93265	200.63133	-422.80093	261.84946	225.68933	-487.07846	68.56290	145.18484	-470.82294	80.28939	156.58948	-347.72012	34.44486	245.00468	-380.05130	24.59720	184.61928	-289.83081	26.05378	-175.56506	-409.76785	761.27625	-162.51752	-431.55548	591.08228	-149.81302	-365.68005	670.03735	-171.58397	-421.18506	675.42377	-157.13708	-452.69385	452.03275	-26.97721	-473.02625	428.53485	-107.50771	-414.93289	346.87457	-118.38586	-430.06348	177.17264	-172.00337	-443.67325	267.02130	-113.50771	-426.03064	261.26297	-171.20041	-485.15820	69.44713	-91.16150	-468.34778	79.26128	-130.76115	-535.89886	33.26926	-111.09595	-342.70032	29.98230	-193.18039	-376.27521	24.82979	-139.92975	-283.70621	25.11956	186.58620	-535.54706	38.80397	18.63124	-343.03937	1221.96814						 
49	0.240	-43.03779	-341.24673	1587.92090	56.51775	-334.02100	1592.26587	-55.84578	-495.03592	1554.35547	88.89800	-483.34921	1565.34680	15.33135	-518.46747	1425.72583	18.77788	-548.15808	1197.37610	17.33246	-393.40771	1343.52625	86.26212	-571.89417	1281.46118	-97.19902	-344.70062	920.35168	155.05113	-352.17523	939.20831	-25.77645	-525.77716	965.20532	74.12182	-525.72388	964.88245	161.80110	-492.56802	1384.85229	298.71613	-477.48480	1328.20862	452.48099	-429.66895	1302.98975	421.95132	-373.22906	1273.18262	578.94733	-404.91882	1340.88574	674.51886	-348.29587	1400.02844	690.99774	-338.02716	1333.89343	754.23987	-328.50638	1385.16431	-118.15894	-484.95734	1395.05688	-260.74982	-491.11093	1332.83850	-405.96558	-453.80072	1295.19580	-392.06241	-400.75879	1259.46619	-537.34033	-407.97089	1335.78162	-623.19891	-347.80914	1397.31226	-634.49945	-321.10907	1336.52441	-700.49567	-327.53473	1387.32898	241.33727	-411.57391	775.96991	223.64661	-422.79391	604.82031	210.79431	-362.64935	690.29315	232.23076	-418.14566	688.02740	212.83911	-432.59610	457.26437	89.65437	-468.59039	435.13864	196.71153	-415.57886	348.46091	201.92160	-431.21106	176.18216	241.12271	-468.81070	267.96143	200.63667	-422.77502	261.86032	225.64940	-487.08365	68.58753	145.18503	-470.79602	80.28541	156.60239	-347.68542	34.43168	245.01761	-380.05713	24.57412	184.61908	-289.83310	26.04889	-175.54826	-409.75055	761.25439	-162.50270	-431.56488	591.08167	-149.81061	-365.75702	670.02936	-171.57266	-421.21179	675.41132	-157.15021	-452.68005	452.05075	-26.98215	-473.01727	428.55103	-107.50828	-414.92795	346.87607	-118.38212	-430.10236	177.15140	-172.00641	-443.68494	267.01498	-113.45896	-426.05542	261.28973	-171.19788	-485.19095	69.54359	-91.12379	-468.36758	79.26776	-130.74947	-535.95331	33.36847	-111.05457	-342.63226	29.98192	-193.15242	-376.28030	24.87994	-139.94412	-283.68356	25.12952	186.53639	-535.47186	38.82186	18.66125	-343.02618	1221.96997						 
